<svg width="340.00000000000006" height="340.00000000000006" xmlns="http://www.w3.org/2000/svg">
 <title/>

 <g>
  <title>background</title>
  <rect fill="none" id="canvas_background" height="402" width="582" y="-1" x="-1"/>
 </g>
 <g>
  <title>Layer 1</title>
  <path stroke-width='10px' fill="#ffffff" id="svg_1" d="m17.922083,106.965a4,4 0 0 0 -2.72,-5.238a4.117,4.117 0 0 0 -4.859,2.669a35.1,35.1 0 0 0 -1.388,5.011a28.64,28.64 0 0 0 6.041,23.83a29,29 0 0 0 17.6,10.221c-1.671,7.448 -1.171,18.311 8.226,26.288a30.528,30.528 0 0 0 19.385,7.162a37.44,37.44 0 0 0 17.548,-4.144c4.713,4.895 16.4,14.444 35.879,14.442a67.908,67.908 0 0 0 15.252,-1.824c1.323,0.82 2.68,1.634 4.114,2.435a30.89,30.89 0 0 1 15.245,22.259c1.808,11.883 2.894,31.54 -2.182,57.615c-0.1,0.458 -10.273,45.941 -39.677,60.434a4.006,4.006 0 0 0 -1.847,5.306a4.12,4.12 0 0 0 3.764,2.282l20.8,0a4.116,4.116 0 0 0 4.153,-3.607a4,4 0 0 0 -3.981,-4.393l-7.82,0c23.867,-20.044 32.05,-56.572 32.448,-58.409c5.312,-27.284 4.159,-47.922 2.257,-60.431a38.945,38.945 0 0 0 -19.254,-28.041c-25.2,-14.076 -30.624,-31.032 -31.458,-40.673a51.833,51.833 0 0 0 14.426,3.53c7.984,24.383 31.968,28.79 33.022,28.971a4,4 0 0 0 4.678,-3.942c0,-14.241 -0.618,-29.418 -1.121,-39.425c9.929,1.333 32.345,2.886 49.449,-6.758a26.8,26.8 0 0 0 13.339,13.987c-4.487,7.823 -12.656,17.906 -26.041,21.17c-0.3,-4.347 -0.692,-11.489 -0.782,-19.388a4,4 0 0 0 -4,-3.967l-0.046,0a3.954,3.954 0 0 0 -3.955,3.993c0.148,13.161 1.1,23.995 1.143,24.449a4,4 0 0 0 3.985,3.644a4.2,4.2 0 0 0 0.5,-0.031c20.055,-2.521 31.336,-17.015 36.881,-27.207a47.979,47.979 0 0 0 7.9,1.091c0.6,0.034 1.17,0.04 1.748,0.051c-0.1,0.436 -0.2,0.871 -0.317,1.3a34.27,34.27 0 0 1 -12.782,18.5a140.546,140.546 0 0 0 -15.949,13.855c-10.568,10.893 -15.2,21.981 -15.018,35.953c0.651,50.213 15.247,81.479 27.377,98.866a103.939,103.939 0 0 0 16.752,18.912l-3.823,0a4.116,4.116 0 0 0 -4.153,3.607a4,4 0 0 0 3.981,4.393l16.083,0a4.143,4.143 0 0 0 3.754,-2.228a4.006,4.006 0 0 0 -1.725,-5.315c-0.122,-0.065 -12.384,-6.667 -24.628,-24.408c-11.345,-16.438 -25,-46.077 -25.619,-93.931c-0.151,-11.687 3.784,-21.025 12.761,-30.279a131.839,131.839 0 0 1 14.975,-13a42.305,42.305 0 0 0 15.744,-22.859c0.355,-1.331 0.638,-2.686 0.862,-4.051a32.542,32.542 0 0 0 23.64,-19.026c7.167,1.978 23.121,5.254 38.377,0.68a4,4 0 0 0 -2.3,-7.662c-17.483,5.242 -37.02,-1.665 -37.212,-1.733l-0.025,-0.007c-0.009,0 -0.016,-0.008 -0.024,-0.011a40.517,40.517 0 0 1 -17.314,-12.059a4,4 0 0 0 -6.39,4.813a48.054,48.054 0 0 0 17.285,13.263c-2.5,5.358 -9.363,15.329 -25.6,14.386c-16.9,-0.983 -21.454,-10.3 -22.645,-14.426c4.437,-3.842 13.886,-14.034 10.5,-28.93a4,4 0 0 0 -7.8,1.773c3.057,13.449 -8.842,21.887 -9.361,22.247c-0.017,0.012 -0.029,0.027 -0.045,0.039s-0.056,0.033 -0.082,0.052c-18.666,13.934 -50.656,8.017 -52.73,7.613c-20.266,-5.393 -22.431,-18.3 -22.526,-18.944a4,4 0 0 0 -7.937,1.006c0.091,0.738 2.418,17.507 25.691,24.873c0.454,8.657 1.057,22.318 1.192,35.807c-6,-2.218 -16.169,-7.651 -21.17,-19.809a37.231,37.231 0 0 0 6.136,-1.235a4.117,4.117 0 0 0 2.957,-4.685a4,4 0 0 0 -5.063,-3.035c-14.367,4.286 -28.724,-4.132 -28.86,-4.213c-0.02,-0.012 -0.042,-0.017 -0.062,-0.029a4.037,4.037 0 0 0 -0.507,-0.236c-0.082,-0.033 -0.161,-0.077 -0.245,-0.105a4.188,4.188 0 0 0 -0.5,-0.114c-0.1,-0.019 -0.2,-0.052 -0.311,-0.064l-0.024,0a3.945,3.945 0 0 0 -1.62,0.167l-0.011,0c-27.255,8.725 -36.589,-7.619 -36.959,-8.293a4,4 0 0 0 -3.142,-2.111c-11.114,-1.1 -19.023,-4.971 -23.507,-11.5c-7.407,-10.785 -3.419,-25.725 -3.38,-25.866a4,4 0 0 0 0.014,-2.107c-3.938,-14.806 0.87,-22.017 5.208,-25.39a27.2,27.2 0 0 0 6.815,15.717a4,4 0 0 0 5.981,-0.015a4.159,4.159 0 0 0 -0.16,-5.48a19.724,19.724 0 0 1 -4.578,-15.764c7.366,-22.238 25.627,-19.6 26.384,-19.482a4,4 0 0 0 4.408,-2.507c1.765,-4.589 8.532,-7.05 10.979,-7.608c0.1,-0.022 0.2,-0.049 0.3,-0.079c9.5,-2.9 16.921,2.923 17.214,3.158a4,4 0 0 0 5.085,-0.012c14.639,-12.108 36.234,-10.362 48.975,-7.866a76.541,76.541 0 0 1 -13.63,3.523a4.109,4.109 0 0 0 -3.5,4.135a4,4 0 0 0 4.637,3.784c14.888,-2.408 24.236,-7.8 26.134,-8.974c28.4,-12.035 50.515,1.306 51.436,1.876a3.994,3.994 0 0 0 3.818,0.233c15.924,-7.445 27.535,-0.576 28,-0.293a3.994,3.994 0 0 0 1.976,0.607c12.86,0.471 21.945,3.717 27,9.647a17.644,17.644 0 0 1 4.249,12.629c-0.121,0.574 -1.714,6.926 -12.711,6.629a3.982,3.982 0 0 0 -4.085,4.288a4.133,4.133 0 0 0 4.121,3.715c0.2,0 0.4,0 0.6,0c10.549,0 16.088,-4.906 18.518,-9.337c7.166,2 12.421,5.526 15.646,10.52c5.787,8.962 3.335,19.994 3.312,20.091a4,4 0 0 0 0.709,3.347a24.165,24.165 0 0 1 4.582,10.1a17.926,17.926 0 0 1 -1.884,11.97a6.2,6.2 0 0 0 -0.11,5.176c2.2,4.266 5.121,11.91 2.634,19.175c-1.962,5.732 -7.054,10.447 -15.134,14.015a4,4 0 0 0 -2.223,2.533c-0.251,0.858 -6.478,20.923 -34.41,14.586a4,4 0 0 0 -3.991,1.379c-0.139,0.171 -14.171,17.1 -35.66,13.173a4,4 0 0 0 -4.7,3.581a4.137,4.137 0 0 0 3.493,4.33a44.4,44.4 0 0 0 7.792,0.7c17.362,0 29.356,-10.495 33.606,-14.877c28.045,5.291 38.285,-12.821 40.85,-18.781c9.337,-4.451 15.372,-10.515 17.949,-18.044c3.2,-9.342 0.205,-18.591 -2.5,-24.233a25.875,25.875 0 0 0 2.144,-16.2a31.841,31.841 0 0 0 -5.013,-11.962c0.631,-4.25 1.382,-14.878 -4.667,-24.313c-4.423,-6.892 -11.433,-11.637 -20.883,-14.136a26,26 0 0 0 -6.008,-15.085c-6.413,-7.642 -17.164,-11.869 -31.966,-12.57c-3.6,-1.876 -16.316,-7.286 -32.72,-0.448a66.932,66.932 0 0 0 -55.765,-1.86c-7.482,-2.334 -40.472,-11.233 -63.348,5.24a27.515,27.515 0 0 0 -21.778,-2.84c-1.435,0.345 -10.711,2.813 -15.167,9.791c-6.916,-0.113 -23.861,2.023 -31.73,23.426a25.28,25.28 0 0 0 -12.022,10.429c-4,6.832 -4.74,15.476 -2.206,25.7c-0.949,4.193 -3.551,19.288 4.723,31.4c5.6,8.194 14.832,13.159 27.462,14.773c3,4.057 11.576,13.2 28.02,13.2a52.415,52.415 0 0 0 11.869,-1.451c0.439,9.22 4.213,25.117 22.282,39.73c-25.467,2.759 -37.267,-12.833 -37.8,-13.554a4,4 0 0 0 -5.429,-1.016a28.129,28.129 0 0 1 -16.123,4.621a22.513,22.513 0 0 1 -14.3,-5.261c-10.317,-8.757 -4.637,-21.573 -4.4,-22.1a4,4 0 0 0 -3.695,-5.69l-0.432,0l-0.035,0a21.009,21.009 0 0 1 -16.268,-7.708a20.666,20.666 0 0 1 -4.372,-17.191a26.894,26.894 0 0 1 1.125,-3.996z"/>
  <path stroke-width='10px' fill="#ffffff" id="svg_2" d="m194.834,331.713a4,4 0 0 0 4,4l15.858,0a4.015,4.015 0 0 0 0.757,-0.076c0.092,-0.018 0.177,-0.049 0.265,-0.073a3.857,3.857 0 0 0 0.455,-0.141c0.1,-0.04 0.2,-0.092 0.293,-0.141a3.7,3.7 0 0 0 0.371,-0.2c0.1,-0.065 0.2,-0.14 0.291,-0.214c0.073,-0.056 0.151,-0.1 0.221,-0.162c0.029,-0.026 0.049,-0.057 0.078,-0.084a4.212,4.212 0 0 0 0.293,-0.318c0.079,-0.092 0.16,-0.181 0.23,-0.279a3.836,3.836 0 0 0 0.2,-0.338c0.064,-0.111 0.131,-0.22 0.183,-0.335s0.088,-0.238 0.13,-0.359s0.087,-0.249 0.117,-0.378s0.039,-0.237 0.056,-0.357a3.871,3.871 0 0 0 0.043,-0.429c0,-0.039 0.012,-0.076 0.012,-0.115c0,-0.082 -0.02,-0.159 -0.024,-0.24a4.12,4.12 0 0 0 -0.044,-0.43a3.739,3.739 0 0 0 -0.085,-0.366a3.782,3.782 0 0 0 -0.118,-0.38a3.68,3.68 0 0 0 -0.164,-0.362c-0.056,-0.112 -0.112,-0.222 -0.179,-0.33a4.164,4.164 0 0 0 -0.253,-0.351c-0.05,-0.063 -0.086,-0.134 -0.141,-0.195c-19.834,-22.361 -25,-66.73 -25.055,-67.175a4,4 0 0 0 -7.95,0.888c0.2,1.756 4.627,39.872 21.848,64.941l-7.692,0a4,4 0 0 0 -3.996,3.999z"/>
  <path stroke-width='10px' fill="#ffffff" id="svg_3" d="m143.166,328.381l-0.009,0.007a4.011,4.011 0 0 0 -0.609,0.5c-0.081,0.081 -0.142,0.174 -0.215,0.26a3.952,3.952 0 0 0 -0.278,0.342a3.752,3.752 0 0 0 -0.179,0.33a2.16,2.16 0 0 0 -0.309,0.743c-0.036,0.119 -0.083,0.233 -0.108,0.356a4.02,4.02 0 0 0 -0.079,0.782l0,0.012c0,0.065 0.016,0.126 0.019,0.191a3.985,3.985 0 0 0 0.059,0.585c0.025,0.128 0.072,0.248 0.109,0.372a2.669,2.669 0 0 0 0.393,0.9c0.032,0.055 0.052,0.113 0.088,0.167l0.008,0.011c0.013,0.019 0.028,0.035 0.04,0.053a4.025,4.025 0 0 0 0.405,0.49c0.033,0.035 0.067,0.07 0.1,0.1a3.985,3.985 0 0 0 0.529,0.437l0.051,0.03a3.93,3.93 0 0 0 0.559,0.3c0.045,0.02 0.089,0.042 0.136,0.061a3.979,3.979 0 0 0 0.637,0.2c0.05,0.011 0.1,0.018 0.151,0.027a3.99,3.99 0 0 0 0.708,0.072l28.488,0a4,4 0 0 0 0.755,-0.076c0.09,-0.017 0.175,-0.048 0.263,-0.071a3.922,3.922 0 0 0 0.455,-0.142c0.1,-0.039 0.193,-0.09 0.289,-0.137a4.112,4.112 0 0 0 0.374,-0.2c0.1,-0.063 0.19,-0.135 0.283,-0.206c0.072,-0.055 0.149,-0.1 0.218,-0.158s0.124,-0.119 0.189,-0.177l0,0c10.813,-9.742 9.035,-29.447 8.953,-30.286a4,4 0 0 0 -7.962,0.77c0.414,4.381 0.151,16.5 -5.469,22.688l-15.87,0c20.389,-21.254 20.05,-55.534 20.022,-57.1l0,-53.686a4,4 0 0 0 -8,0l0,53.759c0.008,0.404 0.425,40.679 -25.194,57.694z"/>
  <path stroke-width='10px' fill="#ffffff" id="svg_4" d="m130.733,19.429a4,4 0 1 0 0,8l0.012,0a4,4 0 1 0 0.027,-8l-0.039,0z"/>
  <path stroke-width='10px' fill="#ffffff" id="svg_5" d="m172.36,198.535a4,4 0 0 0 4,-4l0,-1.591a4,4 0 1 0 -8,0l0,1.591a4,4 0 0 0 4,4z"/>
 </g>
</svg>