<svg width="64" height="64" xmlns="http://www.w3.org/2000/svg">

 <g>
  <title>background</title>
  <rect fill="none" id="canvas_background" height="402" width="582" y="-1" x="-1"/>
 </g>
 <g>
  <title>Layer 1</title>
  <path fill="#ffffff" id="svg_2" d="m59.2,30.9l-1.1,0c1,-1.6 1.6,-3.9 1.6,-6.6c0,-5 -2.1,-8.8 -4.8,-8.8l-44.2,0c-2.8,0 -4.8,3.8 -4.8,8.8c0,2.7 0.6,5 1.6,6.6l-2.7,0c-2.8,0 -4.8,3.8 -4.8,8.8s2.1,8.8 4.8,8.8l11.2,0l43.1,0c2.8,0 4.8,-3.8 4.8,-8.8s-63.9,-39.7 -4.7,-8.8zm-4.4,-13.2c1.1,0 2.6,2.6 2.6,6.6c0,4 -1.5,6.6 -2.6,6.6l-38.8,0l-2.1,0c0,0 0.1,-0.1 0.1,-0.2c0.1,-0.1 0.1,-0.2 0.2,-0.3c0.1,-0.1 0.1,-0.2 0.2,-0.3c0.1,-0.1 0.1,-0.2 0.2,-0.4c0,-0.1 0.1,-0.2 0.1,-0.3c0,-0.1 0.1,-0.3 0.1,-0.4c0,-0.1 0.1,-0.2 0.1,-0.4c0,-0.1 0.1,-0.3 0.1,-0.4c0,-0.1 0.1,-0.2 0.1,-0.4c0,-0.2 0.1,-0.3 0.1,-0.5c0,-0.1 0.1,-0.2 0.1,-0.4c0,-0.2 0.1,-0.3 0.1,-0.5c0,-0.1 0,-0.2 0,-0.4c0,-0.2 0,-0.4 0.1,-0.6c0,-0.1 0,-0.2 0,-0.3c0,-0.3 0,-0.6 0,-1c0,-0.3 0,-0.6 0,-1c0,-0.1 0,-0.2 0,-0.3c0,-0.2 0,-0.4 -0.1,-0.6c0,-0.1 0,-0.2 0,-0.4c0,-0.2 0,-0.3 -0.1,-0.5c0,-0.1 0,-0.2 -0.1,-0.4c0,-0.2 -0.1,-0.3 -0.1,-0.5c0,-0.1 -0.1,-0.2 -0.1,-0.4c0,-0.1 -0.1,-0.3 -0.1,-0.4c0,-0.1 -0.1,-0.2 -0.1,-0.4c0,-0.1 -0.1,-0.3 -0.1,-0.4c0,-0.1 -0.1,-0.2 -0.1,-0.3c-0.1,-0.1 -0.1,-0.2 -0.2,-0.4c0,-0.1 -0.1,-0.2 -0.2,-0.3c-0.1,-0.1 -0.1,-0.2 -0.2,-0.3c0,-0.1 -0.1,-0.1 -0.1,-0.2l40.9,0l0,0.4zm-36.2,22c0,4 -1.6,6.6 -2.6,6.6s-2.6,-2.6 -2.6,-6.6c0,-4 1.5,-6.6 2.6,-6.6l0,0c1.1,0 2.6,2.6 2.6,6.6zm-10.6,-15.4c0,-4 1.6,-6.6 2.6,-6.6s2.6,2.6 2.6,6.6c0,4 -1.5,6.6 -2.6,6.6l0,0c-1,0 -2.6,-2.6 -2.6,-6.6zm-5.8,15.4c0,-4 1.6,-6.6 2.6,-6.6s2.6,2.6 2.6,6.6s-1.6,6.6 -2.6,6.6s-2.6,-2.5 -2.6,-6.6zm6,6.5c0.1,-0.1 0.1,-0.2 0.2,-0.3c0.1,-0.1 0.1,-0.2 0.2,-0.3c0.1,-0.1 0.1,-0.2 0.2,-0.4c0,-0.1 0.1,-0.2 0.1,-0.3c0,-0.1 0.1,-0.3 0.1,-0.4c0,-0.1 0.1,-0.2 0.1,-0.4c0,-0.1 0.1,-0.3 0.1,-0.4c0,-0.1 0.1,-0.2 0.1,-0.4c0,-0.2 0.1,-0.3 0.1,-0.5c0,-0.1 0.1,-0.2 0.1,-0.4c0,-0.2 0.1,-0.3 0.1,-0.5c0,-0.1 0,-0.2 0,-0.4c0,-0.2 0,-0.4 0.1,-0.6c0,-0.1 0,-0.2 0,-0.3c0,-0.3 0,-0.6 0,-1s0,-0.6 0,-1c0,-0.1 0,-0.2 0,-0.3c0,-0.2 0,-0.4 -0.1,-0.6c0,-0.1 0,-0.2 0,-0.4c0,-0.2 0,-0.3 -0.1,-0.5c0,-0.1 0,-0.2 -0.1,-0.4c0,-0.2 -0.1,-0.3 -0.1,-0.5c0,-0.1 -0.1,-0.2 -0.1,-0.4c0,-0.1 -0.1,-0.3 -0.1,-0.4c-0.1,0.1 -0.1,0 -0.2,-0.1c0,-0.1 -0.1,-0.3 -0.1,-0.4c0,-0.1 -0.1,-0.2 -0.1,-0.3c-0.1,-0.1 -0.1,-0.2 -0.2,-0.4c0,-0.1 -0.1,-0.2 -0.2,-0.3c-0.1,-0.1 -0.1,-0.2 -0.2,-0.3c0,-0.1 -0.1,-0.1 -0.1,-0.2l2.6,0c0,0 0,0 0,0l2.1,0c-1,1.6 -1.6,3.9 -1.6,6.6c0,2.7 0.6,5 1.6,6.6l-4.6,0c0,0 0.1,-0.1 0.1,-0.1zm51,0.1l-39.9,0c0,0 0.1,-0.1 0.1,-0.2c0.1,-0.1 0.1,-0.2 0.2,-0.3c0,-0.1 0.1,-0.2 0.1,-0.3c0.1,-0.1 0.1,-0.2 0.2,-0.4c0,-0.1 0.1,-0.2 0.1,-0.3c0.1,-0.1 0.1,-0.3 0.1,-0.4c0,-0.1 0.1,-0.2 0.1,-0.3c0,-0.1 0.1,-0.3 0.1,-0.5c0,-0.1 0.1,-0.2 0.1,-0.3c0,-0.2 0.1,-0.3 0.1,-0.5c0,-0.1 0,-0.2 0.1,-0.4c0,-0.2 0.1,-0.4 0.1,-0.5c0,-0.1 0,-0.2 0,-0.3c0,-0.2 0,-0.4 0.1,-0.6c0,-0.1 0,-0.2 0,-0.3c0,-0.3 0,-0.6 0,-1s0,-0.6 0,-1c0,-0.1 0,-0.2 0,-0.3c0,-0.2 0,-0.4 -0.1,-0.6c0,-0.1 0,-0.2 0,-0.3c0,-0.2 0,-0.4 -0.1,-0.5c0,-0.1 0,-0.2 -0.1,-0.4c0,-0.2 -0.1,-0.3 -0.1,-0.5c0,-0.1 -0.1,-0.2 -0.1,-0.3c0,-0.2 -0.1,-0.3 -0.1,-0.5c0,-0.1 -0.1,-0.2 -0.1,-0.3c0,-0.1 -0.1,-0.3 -0.1,-0.4c0,-0.1 -0.1,-0.2 -0.1,-0.3c-0.1,-0.1 -0.1,-0.3 -0.2,-0.4c0,-0.1 -0.1,-0.2 -0.1,-0.3c-0.1,-0.1 -0.1,-0.2 -0.2,-0.3c0,0 -0.1,-0.1 -0.1,-0.1l35.5,0c0,0 0,0 0,0l4.3,0c1.1,0 2.6,2.6 2.6,6.6s-1.5,6.5 -2.5,6.5z"/>
  <path fill="#ffffff" id="svg_3" d="m18.3,21.7l6.3,0l3.6,1.2c0.1,0 0.2,0.1 0.3,0.1c0.2,0 0.3,0 0.5,-0.1l2.4,-1.1l5.6,0c0.6,0 1.1,-0.5 1.1,-1.1s-0.5,-1.1 -1.1,-1.1l-5.8,0c-0.2,0 -0.3,0 -0.5,0.1l-2.2,1.1l-3.3,-1.1c-0.1,0 -0.2,-0.1 -0.3,-0.1l-6.5,0c-0.6,0 -1.1,0.5 -1.1,1.1s0.4,1 1,1z"/>
  <path fill="#ffffff" id="svg_4" d="m43,21.7l8.7,0c0.6,0 1.1,-0.5 1.1,-1.1s-0.5,-1.1 -1.1,-1.1l-8.7,0c-0.6,0 -1.1,0.5 -1.1,1.1s0.5,1.1 1.1,1.1z"/>
  <path fill="#ffffff" id="svg_5" d="m18.3,28.6l13.7,0c0.6,0 1.1,-0.5 1.1,-1.1s-0.5,-1.1 -1.1,-1.1l-13.7,0c-0.6,0 -1.1,0.5 -1.1,1.1s0.5,1.1 1.1,1.1z"/>
  <path fill="#ffffff" id="svg_6" d="m35.9,27.4c0,0.6 0.5,1.1 1.1,1.1l3.6,0c0.1,0 0.2,0 0.3,0l4.7,-1.4l2.1,1.3c0.2,0.1 0.4,0.2 0.6,0.2l4.8,0c0.6,0 1.1,-0.5 1.1,-1.1s-0.5,-1.1 -1.1,-1.1l-4.5,0l-2.3,-1.4c-0.3,-0.2 -0.6,-0.2 -0.9,-0.1l-5,1.5l-3.4,0c-0.6,-0.1 -1.1,0.4 -1.1,1z"/>
  <path fill="#ffffff" id="svg_7" d="m23.8,37.4l6.3,0l3.6,1.2c0.1,0 0.2,0.1 0.3,0.1c0.2,0 0.3,0 0.5,-0.1l2.4,-1.1l5.5,0c0.6,0 1.1,-0.5 1.1,-1.1s-0.5,-1.1 -1.1,-1.1l-5.8,0c-0.2,0 -0.3,0 -0.5,0.1l-2.2,1.1l-3.3,-1.1c-0.1,0 -0.2,-0.1 -0.3,-0.1l-6.5,0c-0.6,0 -1.1,0.5 -1.1,1.1s0.5,1 1.1,1z"/>
  <path fill="#ffffff" id="svg_8" d="m48.5,37.4l8.7,0c0.6,0 1.1,-0.5 1.1,-1.1s-0.5,-1.1 -1.1,-1.1l-8.7,0c-0.6,0 -1.1,0.5 -1.1,1.1s0.5,1.1 1.1,1.1z"/>
  <path fill="#ffffff" id="svg_9" d="m37.4,42.1l-13.6,0c-0.6,0 -1.1,0.5 -1.1,1.1s0.5,1.1 1.1,1.1l13.7,0c0.6,0 1.1,-0.5 1.1,-1.1s-0.6,-1.1 -1.2,-1.1z"/>
  <path fill="#ffffff" id="svg_10" d="m58.5,42.1l-4.5,0l-2.3,-1.4c-0.3,-0.2 -0.6,-0.2 -0.9,-0.1l-5,1.5l-3.4,0c-0.6,0 -1.1,0.5 -1.1,1.1s0.5,1.1 1.1,1.1l3.6,0c0.1,0 0.2,0 0.3,0l4.7,-1.4l2.1,1.3c0.2,0.1 0.4,0.2 0.6,0.2l4.8,0c0.6,0 1.1,-0.5 1.1,-1.1s-0.4,-1.2 -1.1,-1.2z"/>
 </g>
</svg>